<svg width="84" height="72" viewBox="0 0 84 72" fill="none" xmlns="http://www.w3.org/2000/svg">
<path fill-rule="evenodd" clip-rule="evenodd" d="M0 3.41017C0 1.78043 1.7114 0.717387 3.17243 1.43971L27.3079 13.3722V67.9126C27.3079 70.3803 24.6967 71.9735 22.5023 70.8448L1.19263 59.8827C0.460302 59.5061 0 58.7515 0 57.928V3.41017Z" fill="url(#paint0_linear_105_2755)"/>
<path fill-rule="evenodd" clip-rule="evenodd" d="M27.2981 13.377L55.2322 59.4222L27.2981 45.322V13.377Z" fill="url(#paint1_linear_105_2755)"/>
<path fill-rule="evenodd" clip-rule="evenodd" d="M54.6258 1.02674C55.2338 0.061509 56.4793 -0.278113 57.4933 0.244837L83.5162 13.6666L55.202 59.3966L36.8848 29.1885L54.6258 1.02674Z" fill="url(#paint2_linear_105_2755)"/>
<path fill-rule="evenodd" clip-rule="evenodd" d="M55.2092 59.3954L83.5118 13.6584L83.6841 64.9218C83.6978 69.0338 79.3564 71.7037 75.6929 69.8363L55.2092 59.3954Z" fill="url(#paint3_linear_105_2755)"/>
<defs>
<linearGradient id="paint0_linear_105_2755" x1="-2.12577" y1="-26.2438" x2="60.547" y2="-23.6135" gradientUnits="userSpaceOnUse">
<stop stop-color="#3A8EF6"/>
<stop offset="1" stop-color="#6F3AFA"/>
</linearGradient>
<linearGradient id="paint1_linear_105_2755" x1="34.2816" y1="8.26082" x2="84.202" y2="51.6421" gradientUnits="userSpaceOnUse">
<stop stop-color="#3D93FF"/>
<stop offset="1" stop-color="#65A8FB"/>
</linearGradient>
<linearGradient id="paint2_linear_105_2755" x1="33.2548" y1="-23.2928" x2="139.705" y2="-14.3013" gradientUnits="userSpaceOnUse">
<stop stop-color="#3A8EF6"/>
<stop offset="1" stop-color="#6F3AFA"/>
</linearGradient>
<linearGradient id="paint3_linear_105_2755" x1="62.3279" y1="7.34905" x2="121.245" y2="49.669" gradientUnits="userSpaceOnUse">
<stop stop-color="#65A8FB"/>
<stop offset="1" stop-color="#65A8FB"/>
</linearGradient>
</defs>
</svg>
