<svg width="61" height="40" viewBox="0 0 61 40" fill="none" xmlns="http://www.w3.org/2000/svg">
<path d="M51.1254 3.53629C49.9789 2.41518 48.6175 1.52584 47.1192 0.919073C45.6209 0.312305 44.015 0 42.3932 0C40.7713 0 39.1654 0.312305 37.6671 0.919073C36.1688 1.52584 34.8075 2.41518 33.6609 3.53629L31.2815 5.86189L28.902 3.53629C26.5861 1.27279 23.445 0.00117325 20.1698 0.00117327C16.8945 0.0011733 13.7535 1.27279 11.4375 3.53629C9.1216 5.79979 7.82053 8.86975 7.82053 12.0708C7.82053 15.2719 9.1216 18.3418 11.4375 20.6053L13.817 22.9309L31.2815 40L48.7459 22.9309L51.1254 20.6053C52.2725 19.4848 53.1824 18.1543 53.8032 16.6899C54.4241 15.2255 54.7436 13.6559 54.7436 12.0708C54.7436 10.4857 54.4241 8.91612 53.8032 7.45174C53.1824 5.98736 52.2725 4.65687 51.1254 3.53629Z" fill="url(#paint0_linear_1_849)"/>
<g filter="url(#filter0_b_1_849)">
<path d="M25.4167 29.231C24.971 29.2305 24.5332 29.1148 24.1473 28.8954C23.7614 28.676 23.441 28.3606 23.2181 27.981L18.8846 20.3187L16.1142 24.4061C15.8757 24.7442 15.5561 25.0193 15.1837 25.2068C14.8112 25.3944 14.3975 25.4885 13.9792 25.481H2.54167C1.86757 25.481 1.22109 25.2177 0.744437 24.7488C0.267782 24.28 0 23.6441 0 22.9811C0 22.3181 0.267782 21.6822 0.744437 21.2134C1.22109 20.7445 1.86757 20.4812 2.54167 20.4812H12.6194L16.9529 14.0938C17.195 13.7379 17.526 13.4492 17.9142 13.2552C18.3023 13.0613 18.7346 12.9686 19.1696 12.9862C19.6046 13.0038 20.0277 13.1309 20.3983 13.3555C20.769 13.5801 21.0748 13.8946 21.2865 14.2688L25.4167 21.7311L32.0631 10.4814C32.2902 10.0943 32.6187 9.77415 33.0143 9.55431C33.4099 9.33448 33.8582 9.22297 34.3125 9.2314C34.7561 9.23404 35.1912 9.3508 35.5747 9.57008C35.9581 9.78937 36.2766 10.1035 36.4983 10.4814L42.5856 20.4812L45.1273 18.5062C45.5778 18.1623 46.1328 17.9774 46.7031 17.9812H58.4583C59.1324 17.9812 59.7789 18.2446 60.2556 18.7134C60.7322 19.1823 61 19.8181 61 20.4812C61 21.1442 60.7322 21.78 60.2556 22.2489C59.7789 22.7177 59.1324 22.9811 58.4583 22.9811H47.5927L43.4625 26.1935C43.1779 26.4238 42.8459 26.5904 42.4893 26.6819C42.1327 26.7734 41.7602 26.7875 41.3975 26.7233C41.0349 26.6591 40.6907 26.5181 40.389 26.3101C40.0872 26.102 39.8351 25.8319 39.65 25.5185L34.3125 16.6562L27.6152 27.981C27.3924 28.3606 27.0719 28.676 26.686 28.8954C26.3001 29.1148 25.8624 29.2305 25.4167 29.231Z" fill="white" fill-opacity="0.2"/>
</g>
<defs>
<filter id="filter0_b_1_849" x="-13.8889" y="-4.65793" width="88.7778" height="47.7778" filterUnits="userSpaceOnUse" color-interpolation-filters="sRGB">
<feFlood flood-opacity="0" result="BackgroundImageFix"/>
<feGaussianBlur in="BackgroundImageFix" stdDeviation="6.94444"/>
<feComposite in2="SourceAlpha" operator="in" result="effect1_backgroundBlur_1_849"/>
<feBlend mode="normal" in="SourceGraphic" in2="effect1_backgroundBlur_1_849" result="shape"/>
</filter>
<linearGradient id="paint0_linear_1_849" x1="7.82053" y1="18.6667" x2="53.6186" y2="18.9064" gradientUnits="userSpaceOnUse">
<stop stop-color="#FF7070"/>
<stop offset="1" stop-color="#FF7070" stop-opacity="0.65"/>
</linearGradient>
</defs>
</svg>
