<svg width="25" height="25" viewBox="0 0 25 25" fill="none" xmlns="http://www.w3.org/2000/svg">
<path d="M17.8137 10.0815H7.81673C6.43645 10.0815 5.3175 11.2005 5.3175 12.5808V20.0785C5.3175 21.4587 6.43645 22.5777 7.81673 22.5777H17.8137C19.1939 22.5777 20.3129 21.4587 20.3129 20.0785V12.5808C20.3129 11.2005 19.1939 10.0815 17.8137 10.0815Z" stroke="#211F54" stroke-width="1.67948" stroke-linecap="round" stroke-linejoin="round"/>
<path d="M12.8152 2.58398C11.4895 2.58398 10.2181 3.11061 9.28073 4.048C8.34333 4.98539 7.81671 6.25677 7.81671 7.58244V10.0817H17.8136V7.58244C17.8136 6.25677 17.287 4.98539 16.3496 4.048C15.4122 3.11061 14.1408 2.58398 12.8152 2.58398V2.58398Z" stroke="#211F54" stroke-width="1.67948" stroke-linecap="round" stroke-linejoin="round"/>
</svg>
