<svg width="23" height="21" viewBox="0 0 23 21" fill="none" xmlns="http://www.w3.org/2000/svg">
<path d="M0.740021 2.8044C0.740021 2.11196 0.983196 1.54071 1.46953 1.09064C1.95586 0.640559 2.58811 0.415527 3.36624 0.415527C4.13049 0.415527 4.74882 0.63709 5.22127 1.08026C5.7076 1.53726 5.95077 2.13273 5.95077 2.86672C5.95077 3.53145 5.71456 4.08538 5.24211 4.52854C4.75578 4.98555 4.11659 5.21405 3.32455 5.21405H3.30371C2.53946 5.21405 1.92113 4.98555 1.44868 4.52854C0.976234 4.07154 0.740021 3.49682 0.740021 2.8044ZM1.01098 20.9806V7.10437H5.63813V20.9806H1.01098ZM8.20182 20.9806H12.829V13.2324C12.829 12.7476 12.8845 12.3737 12.9957 12.1106C13.1902 11.6398 13.4855 11.2416 13.8815 10.9162C14.2775 10.5907 14.7743 10.428 15.3718 10.428C16.9281 10.428 17.7062 11.4736 17.7062 13.5647V20.9806H22.3334V13.0246C22.3334 10.975 21.847 9.42054 20.8744 8.36113C19.9017 7.30171 18.6164 6.77201 17.0184 6.77201C15.2259 6.77201 13.8294 7.5406 12.829 9.07779V9.11934H12.8081L12.829 9.07779V7.10437H8.20182C8.2296 7.54752 8.2435 8.92544 8.2435 11.2382C8.2435 13.5509 8.2296 16.7983 8.20182 20.9806Z" fill="#1678F2"/>
</svg>
