<svg width="61" height="61" viewBox="0 0 61 61" fill="none" xmlns="http://www.w3.org/2000/svg">
<g clip-path="url(#clip0_1_868)">
<path d="M31.2625 57.4416C31.0083 57.4416 30.7542 57.4416 30.5 57.4416C29.9917 57.4416 29.7375 57.1874 29.2292 56.6791L12.9625 39.9041C11.9458 38.8874 11.9458 37.3624 12.9625 36.3458C13.9792 35.3291 15.5042 35.3291 16.5208 36.3458L31.0083 51.3416L50.5792 31.2624C52.1042 29.7374 53.1208 27.9583 53.6292 26.1791C55.1542 21.3499 53.8833 16.5208 50.5792 12.9624C49.0542 11.1833 46.7667 10.1666 44.225 10.1666C40.6667 10.1666 36.6 12.1999 33.0417 15.7583C32.5333 16.2666 32.025 16.5208 31.2625 16.5208C30.5 16.5208 29.9917 16.2666 29.4833 15.7583C25.925 12.1999 21.8583 10.1666 18.0458 10.1666C15.5042 10.1666 13.4708 11.1833 11.4375 12.9624C8.3875 16.0124 7.11667 20.5874 8.13334 25.1624C8.64167 26.6874 7.625 27.9583 6.35417 28.2124C5.08334 28.4666 3.55834 27.7041 3.30417 26.4333C1.77917 20.3333 3.55834 13.9791 8.13334 9.40409C10.9292 6.60825 14.2333 5.08325 18.0458 5.08325C22.3667 5.08325 26.9417 7.11659 31.0083 10.6749C35.3292 7.11659 39.9042 5.08325 44.225 5.08325C48.0375 5.08325 51.5958 6.60825 54.3917 9.40409C59.2208 14.2333 60.7458 21.0958 58.7125 27.7041C57.95 30.2458 56.425 32.7874 54.3917 34.8208L33.0417 56.6791C32.5333 57.1874 32.025 57.4416 31.2625 57.4416Z" fill="#1678F2"/>
<path d="M30.7542 42.1917C29.4833 42.1917 28.7208 41.4291 28.2125 40.4125L25.1625 30.5L24.4 33.0417C24.1458 34.0583 23.1292 34.8208 21.8583 34.8208H5.08332C3.55832 34.8208 2.54166 33.8042 2.54166 32.2792C2.54166 30.7542 3.55832 29.7375 5.08332 29.7375H20.0792L22.3667 21.0958C22.875 20.0792 23.8917 19.3167 24.9083 19.3167C25.925 19.3167 26.9417 20.0792 27.45 21.0958L31.0083 32.2792L34.3125 23.8917C34.8208 22.875 35.5833 22.3667 36.6 22.3667C37.6167 22.3667 38.6333 23.1292 38.8875 23.8917L41.175 29.7375H44.7333C46.2583 29.7375 47.275 30.7542 47.275 32.2792C47.275 33.8042 46.2583 34.8208 44.7333 34.8208H39.3958C38.3792 34.8208 37.3625 34.0583 37.1083 33.2958L36.6 31.7708L33.0417 40.6667C32.7875 41.6833 31.7708 42.1917 30.7542 42.1917Z" fill="#1678F2"/>
</g>
<defs>
<clipPath id="clip0_1_868">
<rect width="57.1875" height="52.3583" fill="white" transform="translate(2.54166 5.08325)"/>
</clipPath>
</defs>
</svg>
