<svg width="22" height="18" viewBox="0 0 22 18" fill="none" xmlns="http://www.w3.org/2000/svg">
<path d="M14.7984 0.342756V0.338867H15.8109L16.1809 0.412755C16.4275 0.460723 16.6514 0.523586 16.8526 0.601363C17.0538 0.679139 17.2485 0.769885 17.4367 0.87358C17.625 0.977275 17.7957 1.08293 17.9488 1.19052C18.1007 1.29682 18.237 1.4096 18.3577 1.52885C18.4771 1.6494 18.6634 1.68051 18.9165 1.62218C19.1697 1.56385 19.4422 1.48282 19.7343 1.37913C20.0264 1.27543 20.3152 1.15877 20.6008 1.02913C20.8864 0.899499 21.0603 0.817192 21.1226 0.782193C21.1836 0.74591 21.2161 0.726466 21.22 0.72386L21.2238 0.718027L21.2433 0.708305L21.2628 0.698583L21.2823 0.688861L21.3017 0.679139L21.3056 0.673306L21.3115 0.669417L21.3173 0.665528L21.3212 0.659695L21.3407 0.653862L21.3601 0.649973L21.3563 0.679139L21.3504 0.708305L21.3407 0.737471L21.3309 0.766637L21.3212 0.786081L21.3115 0.805526L21.3017 0.834692C21.2952 0.854136 21.2888 0.880055 21.2823 0.912468C21.2758 0.944881 21.2141 1.0745 21.0973 1.30135C20.9805 1.5282 20.8344 1.75829 20.6592 1.99162C20.4839 2.22494 20.3269 2.40122 20.188 2.52049C20.0478 2.64105 19.955 2.7253 19.9095 2.77327C19.8641 2.82252 19.809 2.86788 19.744 2.90938L19.6467 2.97354L19.6272 2.98326L19.6077 2.99299L19.6039 2.99882L19.598 3.00271L19.5922 3.0066L19.5883 3.01243L19.5688 3.02215L19.5493 3.03187L19.5455 3.03771L19.5396 3.0416L19.5338 3.04549L19.5299 3.05132L19.526 3.05715L19.5201 3.06104L19.5143 3.06493L19.5104 3.07076H19.6077L20.1529 2.9541C20.5164 2.87632 20.8636 2.78235 21.1946 2.67216L21.7204 2.49716L21.7788 2.47772L21.808 2.468L21.8274 2.45827L21.8469 2.44855L21.8664 2.43883L21.8859 2.42911L21.9248 2.42327L21.9637 2.41939V2.45827L21.954 2.46216L21.9443 2.468L21.9404 2.47383L21.9345 2.47772L21.9287 2.48161L21.9248 2.48744L21.9209 2.49327L21.9151 2.49716L21.9092 2.50105L21.9053 2.50688L21.9015 2.51272L21.8956 2.51661L21.8859 2.53605L21.8761 2.55549L21.8703 2.55938C21.8677 2.56327 21.7853 2.67344 21.623 2.88993C21.4607 3.10771 21.3731 3.21788 21.3601 3.22048C21.3472 3.22437 21.329 3.24382 21.3056 3.27881C21.2836 3.3151 21.146 3.45965 20.8928 3.71242C20.6397 3.96519 20.3918 4.19008 20.1491 4.38713C19.905 4.58546 19.7817 4.82915 19.7791 5.11823C19.7752 5.406 19.7603 5.73138 19.7343 6.09432C19.7084 6.45728 19.6597 6.84939 19.5883 7.27069C19.5169 7.69198 19.4066 8.16836 19.2573 8.69983C19.108 9.2313 18.9263 9.74981 18.7121 10.2554C18.4979 10.7609 18.274 11.2146 18.0403 11.6164C17.8067 12.0183 17.5925 12.3586 17.3978 12.6373C17.2031 12.916 17.0051 13.1784 16.8039 13.4247C16.6027 13.671 16.3483 13.9485 16.0407 14.257C15.7317 14.5642 15.563 14.7327 15.5344 14.7625C15.5046 14.791 15.3774 14.8973 15.1528 15.0814C14.9295 15.2667 14.6894 15.4521 14.4324 15.6375C14.1766 15.8216 13.9417 15.9752 13.7275 16.0983C13.5133 16.2214 13.255 16.3621 12.9526 16.5202C12.6514 16.6797 12.3256 16.8275 11.9751 16.9636C11.6246 17.0997 11.2547 17.2261 10.8653 17.3427C10.4758 17.4594 10.0994 17.5501 9.73595 17.6149C9.3725 17.6798 8.96036 17.7349 8.49954 17.7802L7.80832 17.8483V17.858H6.5427V17.8483L6.3772 17.8386C6.26688 17.8321 6.176 17.8256 6.1046 17.8191C6.03322 17.8126 5.76386 17.777 5.29656 17.7122C4.82925 17.6474 4.46256 17.5825 4.19644 17.5177C3.93035 17.4529 3.53443 17.3298 3.00871 17.1483C2.483 16.9668 2.03322 16.7834 1.65937 16.598C1.28683 16.4139 1.05318 16.2973 0.958416 16.248C0.864955 16.2001 0.759812 16.1404 0.642986 16.0691L0.467747 15.9622L0.463872 15.9564L0.458011 15.9525L0.45217 15.9486L0.448276 15.9428L0.428805 15.933L0.409334 15.9233L0.405459 15.9175L0.399598 15.9136L0.393757 15.9097L0.389863 15.9039L0.385988 15.898L0.380127 15.8941H0.370392V15.8553L0.389863 15.8591L0.409334 15.865L0.496953 15.8747C0.555366 15.8812 0.714386 15.8909 0.973993 15.9039C1.23362 15.9168 1.50945 15.9168 1.80151 15.9039C2.09358 15.8909 2.39214 15.8617 2.69718 15.8164C3.00223 15.771 3.36244 15.6932 3.77782 15.583C4.19321 15.4729 4.57484 15.3419 4.92273 15.1903C5.26932 15.0373 5.51594 14.9232 5.66263 14.8481C5.808 14.7742 6.02997 14.6368 6.32852 14.4358L6.77635 14.1345L6.78025 14.1286L6.78609 14.1247L6.79195 14.1208L6.79582 14.115L6.79972 14.1092L6.80556 14.1053L6.81142 14.1014L6.8153 14.0956L6.83477 14.0897L6.85424 14.0858L6.85813 14.0664L6.86397 14.047L6.86983 14.0431L6.87371 14.0372L6.71794 14.0275C6.6141 14.021 6.51349 14.0145 6.41614 14.0081C6.31878 14.0016 6.16627 13.9724 5.95857 13.9206C5.75089 13.8687 5.52698 13.7909 5.28682 13.6872C5.04669 13.5835 4.81303 13.4604 4.58587 13.3178C4.35872 13.1752 4.1945 13.0566 4.09325 12.962C3.9933 12.8686 3.86349 12.7364 3.70383 12.5653C3.54547 12.3929 3.40787 12.216 3.29104 12.0345C3.17422 11.853 3.06259 11.6436 2.95616 11.4064L2.79453 11.0526L2.7848 11.0234L2.77506 10.9942L2.76922 10.9748L2.76533 10.9553L2.79453 10.9592L2.82374 10.9651L3.03792 10.9942C3.18072 11.0137 3.40464 11.0202 3.70967 11.0137C4.01472 11.0072 4.22565 10.9942 4.34248 10.9748C4.4593 10.9553 4.5307 10.9424 4.55666 10.9359L4.5956 10.9262L4.64428 10.9165L4.69296 10.9067L4.69685 10.9009L4.70269 10.897L4.70855 10.8931L4.71243 10.8873L4.67348 10.8776L4.63454 10.8678L4.5956 10.8581L4.55666 10.8484L4.51772 10.8387C4.49176 10.8322 4.44634 10.8192 4.38142 10.7998C4.31652 10.7803 4.14128 10.709 3.8557 10.5859C3.57014 10.4628 3.34297 10.3429 3.17422 10.2262C3.00504 10.1092 2.84374 9.98123 2.69134 9.84314C2.53946 9.70315 2.37267 9.52296 2.19093 9.3026C2.00921 9.08224 1.84696 8.82622 1.70416 8.53455C1.56138 8.24289 1.45428 7.9642 1.38288 7.69846C1.31177 7.43428 1.26485 7.16419 1.24271 6.89153L1.20765 6.4832L1.22712 6.48709L1.24659 6.49292L1.26606 6.50265L1.28553 6.51237L1.305 6.52209L1.32447 6.53181L1.62627 6.66792C1.82749 6.75867 2.07736 6.83644 2.37591 6.90125C2.67447 6.96606 2.85295 7.00172 2.91136 7.00819L2.99898 7.01792H3.17422L3.17034 7.01208L3.16448 7.00819L3.15864 7.0043L3.15475 6.99847L3.15087 6.99264L3.14501 6.98875L3.13917 6.98486L3.13528 6.97903L3.1158 6.96931L3.09633 6.95958L3.09246 6.95375L3.0866 6.94986L3.08076 6.94597L3.07686 6.94014L3.05739 6.93042L3.03792 6.92069L3.03405 6.91486C3.03015 6.91226 2.97433 6.87078 2.86658 6.79042C2.76013 6.70875 2.6485 6.60311 2.53167 6.47348C2.41485 6.34385 2.29802 6.20774 2.1812 6.06515C2.06415 5.92224 1.95991 5.76934 1.86966 5.60822C1.77881 5.44619 1.68274 5.24006 1.58149 4.9899C1.48154 4.74101 1.40561 4.49018 1.35368 4.23741C1.30177 3.98464 1.27256 3.73511 1.26606 3.48881C1.25957 3.24251 1.26606 3.03187 1.28553 2.85688C1.305 2.68188 1.34394 2.48419 1.40236 2.26383C1.46077 2.04347 1.54516 1.81014 1.65548 1.56385L1.82098 1.19441L1.83072 1.16524L1.84045 1.13608L1.84631 1.13219L1.85019 1.12635L1.85408 1.12052L1.85992 1.11663L1.86578 1.12052L1.86966 1.12635L1.87355 1.13219L1.8794 1.13608L1.88526 1.13996L1.88913 1.1458L1.89302 1.15163L1.89887 1.15552L1.9086 1.17496L1.91834 1.19441L1.9242 1.1983L1.92807 1.20413L2.19093 1.49579C2.36617 1.69023 2.57387 1.90736 2.814 2.14717C3.05416 2.38697 3.1872 2.51141 3.21316 2.52049C3.23913 2.53086 3.27157 2.56067 3.31051 2.60994C3.34946 2.65791 3.47927 2.77263 3.69993 2.9541C3.92062 3.13557 4.20943 3.34623 4.56639 3.58603C4.92338 3.82584 5.31928 4.06241 5.75413 4.29574C6.18899 4.52907 6.6563 4.73971 7.15604 4.92767C7.6558 5.11564 8.00628 5.23878 8.20747 5.29711C8.40869 5.35544 8.75266 5.42997 9.23944 5.52072C9.72621 5.61146 10.0929 5.6698 10.3395 5.69572C10.5862 5.72164 10.7549 5.73655 10.8458 5.74044L10.9821 5.74433L10.9782 5.71516L10.9724 5.68599L10.9334 5.44294C10.9075 5.28092 10.8945 5.05406 10.8945 4.7624C10.8945 4.47074 10.9172 4.20177 10.9626 3.95547C11.0081 3.70917 11.0762 3.45965 11.1671 3.20687C11.2579 2.9541 11.3469 2.75122 11.4338 2.59827C11.5221 2.44661 11.6376 2.27356 11.7804 2.07911C11.9232 1.88467 12.1082 1.68376 12.3353 1.47635C12.5625 1.26894 12.8221 1.08422 13.1142 0.92219C13.4062 0.760162 13.6756 0.637004 13.9222 0.552752C14.1689 0.468501 14.3765 0.413396 14.5453 0.387477C14.714 0.361558 14.7984 0.346645 14.7984 0.342756Z" fill="#1678F2"/>
</svg>
