<svg width="24" height="25" viewBox="0 0 24 25" fill="none" xmlns="http://www.w3.org/2000/svg">
<path fill-rule="evenodd" clip-rule="evenodd" d="M12.6437 14.5938C11.1373 14.5938 9.91549 13.3726 9.91549 11.8656C9.91549 11.102 10.2281 10.4137 10.7336 9.91775C10.9213 9.73363 10.9241 9.43222 10.74 9.24454C10.5559 9.05686 10.2545 9.05397 10.0668 9.23809C9.38651 9.90549 8.96338 10.8357 8.96338 11.8656C8.96338 13.8986 10.6117 15.5459 12.6437 15.5459C13.6726 15.5459 14.6037 15.1228 15.2712 14.4425C15.4553 14.2548 15.4524 13.9534 15.2647 13.7693C15.0771 13.5851 14.7756 13.588 14.5915 13.7757C14.0957 14.2812 13.4065 14.5938 12.6437 14.5938Z" fill="#677185"/>
<path fill-rule="evenodd" clip-rule="evenodd" d="M5.0955 15.8069C6.62553 17.6858 9.05485 19.6157 12.5611 19.6157C14.9391 19.6157 16.832 18.7256 18.2838 17.5641C18.4869 17.4016 18.5188 17.1065 18.3552 16.9049C18.1915 16.7033 17.8941 16.6716 17.691 16.8341C16.3726 17.8889 14.6829 18.6781 12.5611 18.6781C9.4458 18.6781 7.25989 16.9732 5.83011 15.2174C5.11626 14.3408 4.60039 13.4618 4.26305 12.8013C4.09467 12.4715 3.97153 12.1978 3.89105 12.0079C3.87102 11.9607 3.85365 11.9187 3.83889 11.8823C3.87493 11.7981 3.92562 11.6834 3.99126 11.5437C4.14199 11.2227 4.37095 10.7707 4.68148 10.2522C5.30458 9.2118 6.24579 7.9212 7.52738 6.88117C7.72933 6.71729 7.75921 6.42192 7.59411 6.22146C7.42902 6.02099 7.13147 5.99133 6.92952 6.15522C5.5336 7.28802 4.52594 8.67702 3.86954 9.77302C3.54032 10.3227 3.29687 10.8031 3.13513 11.1475C3.05421 11.3198 2.9936 11.4584 2.9528 11.5549C2.9324 11.6032 2.91694 11.6411 2.90637 11.6674C2.90108 11.6805 2.89701 11.6908 2.89416 11.6981L2.89078 11.7067L2.88978 11.7094L2.88944 11.7102L2.88932 11.7105C2.88927 11.7107 2.88922 11.7108 3.3307 11.8774C2.88579 12.0347 2.88586 12.0349 2.88594 12.0352L2.88616 12.0358L2.88677 12.0374L2.88872 12.0428C2.89034 12.0472 2.89262 12.0534 2.89555 12.0613C2.90141 12.077 2.9099 12.0993 2.92105 12.128C2.94336 12.1853 2.97636 12.2677 3.0204 12.3716C3.10846 12.5793 3.24087 12.8734 3.42053 13.2252C3.77926 13.9277 4.32945 14.8661 5.0955 15.8069ZM3.3307 11.8774L2.88579 12.0347C2.84812 11.9298 2.84934 11.8149 2.88922 11.7108L3.3307 11.8774Z" fill="#677185"/>
<path fill-rule="evenodd" clip-rule="evenodd" d="M18.8911 16.106C19.0838 16.2767 19.38 16.2605 19.5525 16.0698C20.4585 15.0688 21.1086 14.0264 21.5319 13.2364C21.7439 12.8407 21.9001 12.5063 22.0039 12.2693C22.0558 12.1507 22.0947 12.0564 22.1209 11.9907C22.134 11.9579 22.144 11.9322 22.1508 11.9143C22.1543 11.9053 22.1569 11.8982 22.1588 11.8932L22.1611 11.8871L22.1618 11.8852L22.162 11.8846L22.1621 11.8843C22.1621 11.8842 22.1622 11.8841 21.7218 11.7262C22.1597 11.5617 22.1596 11.5615 22.1595 11.5613L22.1587 11.5591L22.1566 11.5538C22.1549 11.5495 22.1525 11.5434 22.1494 11.5356C22.1433 11.5201 22.1343 11.4979 22.1225 11.4695C22.099 11.4126 22.0643 11.3307 22.0181 11.2274C21.9258 11.0209 21.7876 10.7283 21.6017 10.3782C21.2306 9.67917 20.6664 8.74526 19.8941 7.80904C18.3541 5.94218 15.9403 4.01438 12.5463 4.01438C11.0156 4.01438 9.67911 4.40843 8.53248 5.01426C8.3043 5.13483 8.21813 5.41554 8.34 5.64127C8.46188 5.86699 8.74565 5.95224 8.97383 5.83168C9.99887 5.29008 11.1849 4.94108 12.5463 4.94108C15.5447 4.94108 17.7186 6.63753 19.1683 8.39493C19.8908 9.27083 20.4219 10.149 20.7724 10.8091C20.9473 11.1386 21.0765 11.4123 21.1613 11.6021C21.1828 11.6502 21.2015 11.6929 21.2173 11.7297C21.1976 11.7773 21.1732 11.8347 21.1443 11.9009C21.0489 12.1187 20.9032 12.4309 20.7041 12.8024C20.3052 13.547 19.6961 14.5218 18.8546 15.4517C18.682 15.6424 18.6984 15.9353 18.8911 16.106ZM21.7218 11.7262L22.1597 11.5617C22.1995 11.6654 22.2004 11.7798 22.1622 11.8841L21.7218 11.7262Z" fill="#677185"/>
<path fill-rule="evenodd" clip-rule="evenodd" d="M15.5214 12.8258C15.7649 12.8699 15.9955 12.6931 16.0365 12.4308C16.068 12.2297 16.0858 12.0217 16.0858 11.8072C16.0858 9.75165 14.5385 8.08429 12.6289 8.08429C12.4297 8.08429 12.2365 8.10352 12.0498 8.13737C11.8062 8.18152 11.642 8.42991 11.683 8.69218C11.724 8.95445 11.9547 9.13127 12.1982 9.08713C12.3399 9.06144 12.4834 9.0474 12.6289 9.0474C14.0445 9.0474 15.1915 10.2834 15.1915 11.8072C15.1915 11.9639 15.1785 12.1183 15.1546 12.271C15.1136 12.5332 15.2778 12.7816 15.5214 12.8258Z" fill="#677185"/>
<path fill-rule="evenodd" clip-rule="evenodd" d="M8.96338 11.8656C8.96338 13.8985 10.6107 15.5459 12.6437 15.5459C13.6736 15.5459 14.6038 15.1228 15.2712 14.4425C15.4553 14.2548 15.4524 13.9534 15.2647 13.7693C15.0771 13.5851 14.7756 13.588 14.5915 13.7757C14.0956 14.2812 13.4073 14.5938 12.6437 14.5938C11.1366 14.5938 9.91549 13.3727 9.91549 11.8656C9.91549 11.1028 10.2281 10.4136 10.7336 9.91775C10.9213 9.73363 10.9241 9.43222 10.74 9.24454C10.5559 9.05686 10.2545 9.05397 10.0668 9.23809C9.38646 9.90554 8.96338 10.8367 8.96338 11.8656Z" fill="#677185"/>
<path fill-rule="evenodd" clip-rule="evenodd" d="M20.6981 19.8193C20.8791 19.6382 20.8791 19.3447 20.6981 19.1636L5.34564 3.81121C5.16459 3.63016 4.87104 3.63016 4.68999 3.81121C4.50894 3.99227 4.50894 4.28581 4.68999 4.46687L20.0424 19.8193C20.2235 20.0003 20.517 20.0003 20.6981 19.8193Z" fill="#677185"/>
</svg>
