<svg width="25" height="25" viewBox="0 0 25 25" fill="none" xmlns="http://www.w3.org/2000/svg">
<path fill-rule="evenodd" clip-rule="evenodd" d="M12.9905 14.6148C11.4827 14.6148 10.2597 13.3925 10.2597 11.884C10.2597 11.1197 10.5726 10.4307 11.0785 9.9343C11.2664 9.75 11.2693 9.4483 11.085 9.26044C10.9007 9.07257 10.599 9.06968 10.4111 9.25398C9.73018 9.92202 9.30664 10.8532 9.30664 11.884C9.30664 13.919 10.9565 15.5679 12.9905 15.5679C14.0204 15.5679 14.9524 15.1444 15.6205 14.4634C15.8048 14.2755 15.8019 13.9738 15.6141 13.7895C15.4262 13.6052 15.1245 13.6081 14.9402 13.796C14.4439 14.3019 13.754 14.6148 12.9905 14.6148Z" fill="#677185"/>
<path fill-rule="evenodd" clip-rule="evenodd" d="M5.43506 15.8291C6.96657 17.7098 9.39822 19.6416 12.9079 19.6416C15.2882 19.6416 17.1829 18.7506 18.6361 17.588C18.8394 17.4254 18.8713 17.13 18.7075 16.9282C18.5437 16.7264 18.246 16.6946 18.0427 16.8573C16.723 17.9131 15.0317 18.703 12.9079 18.703C9.78955 18.703 7.60154 16.9966 6.17038 15.2391C5.45584 14.3616 4.93947 13.4818 4.6018 12.8206C4.43326 12.4905 4.31001 12.2165 4.22945 12.0264C4.2094 11.9792 4.19201 11.9371 4.17724 11.9007C4.21331 11.8165 4.26406 11.7017 4.32976 11.5618C4.48063 11.2405 4.70981 10.788 5.02064 10.269C5.64434 9.22765 6.58646 7.9358 7.86929 6.89477C8.07143 6.73073 8.10133 6.43508 7.93608 6.23442C7.77083 6.03376 7.47299 6.00407 7.27085 6.16811C5.87359 7.30201 4.86495 8.69235 4.20792 9.78941C3.87838 10.3396 3.6347 10.8205 3.4728 11.1652C3.3918 11.3377 3.33113 11.4764 3.29029 11.5731C3.26987 11.6214 3.2544 11.6593 3.24382 11.6856C3.23852 11.6988 3.23445 11.7091 3.2316 11.7163L3.22822 11.725L3.22721 11.7276L3.22688 11.7285L3.22675 11.7288C3.2267 11.7289 3.22665 11.7291 3.66856 11.8958C3.22322 12.0533 3.22329 12.0535 3.22337 12.0537L3.22358 12.0543L3.2242 12.056L3.22615 12.0614C3.22778 12.0658 3.23005 12.072 3.23299 12.0799C3.23886 12.0956 3.24735 12.118 3.25852 12.1467C3.28085 12.204 3.31388 12.2865 3.35796 12.3905C3.4461 12.5984 3.57864 12.8928 3.75847 13.245C4.11755 13.9481 4.66827 14.8874 5.43506 15.8291ZM3.66856 11.8958L3.22322 12.0533C3.18551 11.9482 3.18673 11.8333 3.22665 11.7291L3.66856 11.8958Z" fill="#677185"/>
<path fill-rule="evenodd" clip-rule="evenodd" d="M19.2443 16.1286C19.4373 16.2994 19.7337 16.2832 19.9064 16.0924C20.8133 15.0904 21.4639 14.047 21.8876 13.2562C22.0999 12.8601 22.2563 12.5254 22.3601 12.2881C22.4121 12.1695 22.451 12.075 22.4772 12.0093C22.4904 11.9765 22.5003 11.9508 22.5072 11.9328C22.5107 11.9238 22.5133 11.9168 22.5152 11.9117L22.5175 11.9057L22.5182 11.9038L22.5184 11.9031L22.5185 11.9028C22.5185 11.9027 22.5186 11.9026 22.0778 11.7446C22.5161 11.5799 22.516 11.5797 22.5159 11.5795L22.5151 11.5773L22.513 11.572C22.5113 11.5677 22.5089 11.5616 22.5058 11.5538C22.4996 11.5383 22.4907 11.5161 22.4789 11.4876C22.4554 11.4306 22.4206 11.3487 22.3744 11.2453C22.282 11.0386 22.1436 10.7457 21.9576 10.3953C21.5861 9.69556 21.0214 8.76075 20.2483 7.82363C18.7069 5.95497 16.2907 4.02531 12.8935 4.02531C11.3612 4.02531 10.0235 4.41974 8.87574 5.02616C8.64734 5.14684 8.56108 5.42783 8.68307 5.65377C8.80506 5.87971 9.08911 5.96504 9.31751 5.84436C10.3435 5.30224 11.5307 4.95291 12.8935 4.95291C15.8947 4.95291 18.0707 6.65099 19.5218 8.41008C20.245 9.28683 20.7767 10.1659 21.1274 10.8266C21.3025 11.1564 21.4318 11.4303 21.5168 11.6204C21.5383 11.6685 21.5569 11.7112 21.5728 11.7481C21.553 11.7957 21.5287 11.8532 21.4997 11.9195C21.4042 12.1374 21.2584 12.4499 21.0591 12.8218C20.6598 13.5671 20.0501 14.5429 19.2078 15.4737C19.035 15.6645 19.0514 15.9577 19.2443 16.1286ZM22.0778 11.7446L22.5161 11.5799C22.5559 11.6837 22.5568 11.7982 22.5186 11.9026L22.0778 11.7446Z" fill="#677185"/>
<path fill-rule="evenodd" clip-rule="evenodd" d="M15.8705 12.8453C16.1143 12.8895 16.3452 12.7125 16.3862 12.45C16.4177 12.2487 16.4355 12.0404 16.4355 11.8257C16.4355 9.76821 14.8868 8.09924 12.9753 8.09924C12.7759 8.09924 12.5825 8.11849 12.3956 8.15238C12.1518 8.19656 11.9875 8.4452 12.0285 8.70772C12.0695 8.97024 12.3004 9.14723 12.5442 9.10305C12.686 9.07733 12.8296 9.06328 12.9753 9.06328C14.3922 9.06328 15.5404 10.3005 15.5404 11.8257C15.5404 11.9826 15.5273 12.1372 15.5034 12.2899C15.4624 12.5525 15.6268 12.8011 15.8705 12.8453Z" fill="#677185"/>
<path fill-rule="evenodd" clip-rule="evenodd" d="M9.30664 11.884C9.30664 13.9189 10.9556 15.5679 12.9905 15.5679C14.0214 15.5679 14.9525 15.1443 15.6205 14.4634C15.8048 14.2755 15.8019 13.9738 15.6141 13.7895C15.4262 13.6052 15.1245 13.6081 14.9402 13.796C14.4438 14.302 13.7548 14.6148 12.9905 14.6148C11.4819 14.6148 10.2597 13.3926 10.2597 11.884C10.2597 11.1205 10.5726 10.4306 11.0785 9.9343C11.2664 9.75 11.2693 9.4483 11.085 9.26044C10.9007 9.07257 10.599 9.06968 10.4111 9.25398C9.73013 9.92207 9.30664 10.8541 9.30664 11.884Z" fill="#677185"/>
<path fill-rule="evenodd" clip-rule="evenodd" d="M21.0527 19.8453C21.234 19.6641 21.234 19.3702 21.0527 19.189L5.68552 3.82177C5.50429 3.64054 5.21046 3.64054 5.02923 3.82177C4.848 4.003 4.848 4.29683 5.02923 4.47805L20.3965 19.8453C20.5777 20.0265 20.8715 20.0265 21.0527 19.8453Z" fill="#677185"/>
</svg>
