<svg width="24" height="18" viewBox="0 0 24 18" fill="none" xmlns="http://www.w3.org/2000/svg">
<path d="M12.4475 17.4718L7.57442 17.3807C5.99661 17.349 4.41487 17.4124 2.868 17.0836C0.514844 16.5923 0.348139 14.1836 0.173699 12.1631C-0.0666617 9.32255 0.026389 6.43046 0.47998 3.61364C0.736047 2.03311 1.74378 1.08999 3.30219 0.987364C8.56299 0.614909 13.8588 0.659049 19.1079 0.832812C19.6623 0.848742 20.2205 0.935806 20.7671 1.03491C23.4655 1.51826 23.5313 4.2479 23.7062 6.54574C23.8806 8.86729 23.807 11.2008 23.4736 13.5065C23.2061 15.4156 22.6943 17.0166 20.5345 17.1711C17.8284 17.3732 15.1844 17.5359 12.4708 17.4841C12.4709 17.4718 12.4553 17.4718 12.4475 17.4718ZM9.58262 12.6385C11.6219 11.442 13.6222 10.2654 15.6498 9.07692C13.6068 7.8804 11.6102 6.70381 9.58262 5.51531V12.6385Z" fill="#1678F2"/>
</svg>
